HIERARCHY
ROOT Hips
{
	OFFSET 0.00000 0.00000 0.00000
	CHANNELS 6 Xposition Yposition Zposition Zrotation Yrotation Xrotation 
	JOINT LHipJoint
	{
		OFFSET 0 0 0
		CHANNELS 3 Zrotation Yrotation Xrotation
		JOINT LeftHip
		{
			OFFSET 1.53139 -1.83434 0.76626
			CHANNELS 3 Zrotation Yrotation Xrotation
			JOINT LeftKnee
			{
				OFFSET 2.56112 -7.03663 0.00000
				CHANNELS 3 Zrotation Yrotation Xrotation
				JOINT LeftAnkle
				{
					OFFSET 2.59983 -7.14299 0.00000
					CHANNELS 3 Zrotation Yrotation Xrotation
					JOINT LeftToe
					{
						OFFSET 0.13742 -0.37757 2.00054
						CHANNELS 3 Zrotation Yrotation Xrotation
						End Site
						{
							OFFSET 0.00000 -0.00000 1.02897
						}
					}
				}
			}
		}
	}
	JOINT RHipJoint
	{
		OFFSET 0 0 0
		CHANNELS 3 Zrotation Yrotation Xrotation
		JOINT RightHip
		{
			OFFSET -1.40122 -1.83435 0.76627
			CHANNELS 3 Zrotation Yrotation Xrotation
			JOINT RightKnee
			{
				OFFSET -2.54052 -6.98003 0.00000
				CHANNELS 3 Zrotation Yrotation Xrotation
				JOINT RightAnkle
				{
					OFFSET -2.63179 -7.23079 0.00000
					CHANNELS 3 Zrotation Yrotation Xrotation
					JOINT RightToe
					{
						OFFSET -0.24131 -0.66299 2.03908
						CHANNELS 3 Zrotation Yrotation Xrotation
						End Site
						{
							OFFSET -0.00000 -0.00000 1.07391
						}
					}
				}
			}
		}
	}
	JOINT lowerback
	{
		OFFSET 0 0 0
		CHANNELS 3 Zrotation Yrotation Xrotation
		JOINT Chest
		{
			OFFSET 0.01174 2.10302 -0.29778
			CHANNELS 3 Zrotation Yrotation Xrotation
			JOINT Chest2
			{
				OFFSET 0.00772 2.13227 -0.01247
				CHANNELS 3 Zrotation Yrotation Xrotation
				JOINT lowerneck
				{
					OFFSET 0 0 0
					CHANNELS 3 Zrotation Yrotation Xrotation
					JOINT Neck
					{
						OFFSET -0.09219 1.60848 0.31481
						CHANNELS 3 Zrotation Yrotation Xrotation
						JOINT Head
						{
							OFFSET 0.13974 1.65456 -0.31134
							CHANNELS 3 Zrotation Yrotation Xrotation
							End Site
							{
								OFFSET 0.04742 1.69515 -0.14578
							}
						}
					}
				}
				JOINT LeftCollar
				{
					OFFSET 0 0 0
					CHANNELS 3 Zrotation Yrotation Xrotation
					JOINT LeftShoulder
					{
						OFFSET 3.24909 1.02882 -0.23993
CHANNELS 3 Zrotation Xrotation Yrotation
						JOINT LeftElbow
						{
OFFSET 0 -5.329550 -0.000000
CHANNELS 3 Zrotation Xrotation Yrotation
							JOINT LeftWrist
							{
OFFSET 0 -3.692320 -0.000000
CHANNELS 3 Zrotation Xrotation Yrotation
								JOINT lhand
								{
									OFFSET 0 0 0
CHANNELS 3 Zrotation Xrotation Yrotation
									JOINT LFingers
									{
OFFSET 0 -0.536600 -0.000000
CHANNELS 3 Zrotation Xrotation Yrotation
										End Site
										{
OFFSET 0 -0.432620 -0.000000
										}
									}
								}
								JOINT LThumb
								{
OFFSET 0 0.000000 0.000000
CHANNELS 3 Zrotation Xrotation Yrotation
									End Site
									{
OFFSET 0 -0.439220 0.439220
									}
								}
							}
						}
					}
				}
				JOINT RightCollar
				{
					OFFSET 0 0 0
					CHANNELS 3 Zrotation Yrotation Xrotation
					JOINT RightShoulder
					{
						OFFSET -3.21387 0.93002 -0.34594
CHANNELS 3 Zrotation Xrotation Yrotation
						JOINT RightElbow
						{
OFFSET 0 -5.234310 0.000000
CHANNELS 3 Zrotation Xrotation Yrotation
							JOINT RightWrist
							{
OFFSET 0 -3.553010 -0.000000
CHANNELS 3 Zrotation Xrotation Yrotation
								JOINT rhand
								{
									OFFSET 0 0 0
CHANNELS 3 Zrotation Xrotation Yrotation
									JOINT RFingers
									{
OFFSET 0 -0.772520 -0.000000
CHANNELS 3 Zrotation Xrotation Yrotation
										End Site
										{
OFFSET 0 -0.622830 -0.000000
										}
									}
								}
								JOINT RThumb
								{
OFFSET 0 0.000000 0.000000
CHANNELS 3 Zrotation Xrotation Yrotation
									End Site
									{
OFFSET 0 -0.632340 0.632340
									}
								}
							}
						}
					}
				}
			}
		}
	}
}
MOTION
Frames: 4
Frame Time: 0.008333333333333333
9.094522 17.787772 2.722308 -362.186659 50.122966 -366.339449 0.000000 0.000000 0.000000 -15.005996 -5.761584 -11.129436 3.972145 12.123040 36.168992 0.298268 -15.091357 -13.622968 1.049903 -6.511459 -18.277382 0.000000 0.000000 0.000000 20.091346 3.535274 -8.234480 -2.897528 -10.527101 30.701192 -0.705877 8.210589 -15.187232 -0.017756 -0.856525 2.354201 -1.522200 0.471666 12.842688 -0.068458 0.438186 1.355495 0.709454 0.263615 -5.787481 -14.657249 -9.243496 -12.092169 13.521111 -14.011089 33.089397 5.858658 -6.026195 15.901921 0.000000 0.000000 0.000000 3.547682 0.555583 -22.040879 17.877444 -27.999863 4.491629 18.569839 16.253440 -25.587882 0.000000 0.000000 0.000000 -7.125000 0.000000 0.000000 -12.204495 56.362448 3.436425 0.000000 0.000000 0.000000 -3.243449 9.004080 6.673032 -19.567861 -30.118161 -5.312763 -19.285472 1.326932 -6.601228 0.000000 0.000000 0.000000 7.125000 0.000000 0.000000 5.492436 22.998243 2.923123
9.092901 17.778681 2.786175 -361.929080 49.791163 -366.042234 0.000000 0.000000 0.000000 -16.089601 -6.147036 -11.591978 3.868651 11.983454 35.673642 0.263388 -16.399397 -14.031109 1.209824 -6.977134 -19.647736 0.000000 0.000000 0.000000 20.102430 3.593751 -8.525367 -2.995850 -10.688218 31.235452 -0.714748 8.643762 -15.344346 -0.025841 -1.037808 2.852793 -1.370748 0.465607 12.787432 -0.125171 0.447589 1.309301 0.562821 0.263942 -5.804176 -14.645262 -9.255542 -12.115080 13.504080 -14.044534 33.258841 5.853165 -6.037972 15.996844 0.000000 0.000000 0.000000 3.376646 0.492762 -22.277243 17.681650 -27.747596 4.399998 18.274117 15.987767 -24.597103 0.000000 0.000000 0.000000 -7.125000 0.000000 0.000000 -12.028555 55.312759 3.078293 0.000000 0.000000 0.000000 -3.306177 8.942057 5.985446 -19.526591 -30.067752 -5.292053 -19.130576 1.264475 -6.632713 0.000000 0.000000 0.000000 7.125000 0.000000 0.000000 5.606002 22.971900 2.987383
9.094007 17.754613 2.856367 -361.718347 49.455980 -365.794331 0.000000 0.000000 0.000000 -17.077667 -6.747579 -11.918024 3.764043 11.839406 35.166525 0.159451 -17.979555 -14.075264 1.237401 -7.053262 -19.873529 0.000000 0.000000 0.000000 20.108037 3.404587 -8.935737 -3.118626 -10.884385 31.891172 -0.710972 9.301474 -15.428427 -0.032783 -1.168145 3.211603 -1.397467 0.443840 12.595742 -0.022798 0.423770 1.320253 0.690796 0.253001 -5.686492 -14.685703 -9.241258 -12.024734 13.314878 -13.953054 33.223403 5.791423 -6.031820 15.919655 0.000000 0.000000 0.000000 3.019728 0.570930 -22.477594 17.672462 -27.735634 4.395744 18.414206 16.097160 -24.101007 0.000000 0.000000 0.000000 -7.125000 0.000000 0.000000 -11.654002 54.843472 2.846404 0.000000 0.000000 0.000000 -3.689505 8.830926 5.700549 -19.513672 -30.051960 -5.285629 -19.112467 1.124742 -6.378089 0.000000 0.000000 0.000000 7.125000 0.000000 0.000000 5.623207 23.240401 2.961721
9.093402 17.726869 2.926257 -361.533017 49.075556 -365.612048 0.000000 0.000000 0.000000 -18.040455 -7.874190 -11.915846 3.651976 11.682008 34.616477 -0.031641 -19.655008 -13.578282 1.123978 -6.732777 -18.926768 0.000000 0.000000 0.000000 20.160527 3.277571 -9.271048 -3.242824 -11.077833 32.543152 -0.713994 9.881152 -15.578478 -0.036849 -1.239437 3.407964 -1.317955 0.380683 12.640212 -0.055054 0.345424 1.189718 0.624963 0.212867 -5.846829 -14.375909 -9.115217 -11.824300 13.053245 -13.782673 33.307631 5.664202 -5.958382 15.814838 0.000000 0.000000 0.000000 2.971380 1.005111 -23.007555 17.796354 -27.895591 4.453529 18.403107 15.647694 -23.947943 0.000000 0.000000 0.000000 -7.125000 0.000000 0.000000 -11.596024 54.687894 2.787326 0.000000 0.000000 0.000000 -3.766245 9.040613 5.408666 -19.632675 -30.197259 -5.345412 -18.692106 0.971900 -6.337118 0.000000 0.000000 0.000000 7.125000 0.000000 0.000000 5.933662 23.300924 3.118797
